# xmcd
# 
# Track frame offsets:
#     150
#     22297
#     39639
# 
# Disc length: 828
# 
# Revision: 0
# Processed by: cddbd v1.5.2PL0 Copyright (c) Steve Scherf et al.
# Submitted via: fre:ac v1.0.31
# 
DISCID=23033a03
DTITLE=SHISHAMO - 君の隣にいたいから
DYEAR=2019
DGENRE=JPop
TTITLE0=君の隣にいたいから
TTITLE1=またね
TTITLE2=君の大事にしてるもの
EXTD=YEAR: 1998
EXTT0=
EXTT1=
EXTT2=
PLAYORDER=
